<?xml version="1.0" encoding="UTF-8" standalone="no"?>
<!DOCTYPE svg PUBLIC "-//W3C//DTD SVG 1.1//EN" "http://www.w3.org/Graphics/SVG/1.1/DTD/svg11.dtd">
<svg width="100%" height="100%" viewBox="0 0 240 84" version="1.1" xmlns="http://www.w3.org/2000/svg" xmlns:xlink="http://www.w3.org/1999/xlink" xml:space="preserve" xmlns:serif="http://www.serif.com/" style="fill-rule:evenodd;clip-rule:evenodd;stroke-linecap:round;stroke-linejoin:round;stroke-miterlimit:1.5;">
    <g transform="matrix(1,0,0,1,-0.856674,-0.370398)">
        <ellipse cx="22.917" cy="31.376" rx="17.869" ry="18.424" style="fill:none;stroke:rgb(47,47,65);stroke-width:2px;"/>
    </g>
    <g transform="matrix(1,0,0,1,0,1)">
        <path d="M20.825,49.262L18.891,52.605L25.123,53.799L24.12,48.905" style="fill:none;stroke:rgb(47,47,65);stroke-width:2px;"/>
    </g>
    <g transform="matrix(0.992396,-0.123089,0.123089,0.992396,-4.0006,7.4985)">
        <path d="M20.212,49.459C20.212,49.459 14.721,53.199 18.211,57.596C21.701,61.993 16.532,63.681 14.743,67.235C12.953,70.788 19.512,74.236 19.512,74.236" style="fill:none;stroke:rgb(47,47,65);stroke-width:2px;"/>
    </g>
    <g id="Page-1" transform="matrix(1,0,0,1,0,10)">
        <g transform="matrix(3.15184,0,0,3.15184,-54.2535,9.16089)">
            <g transform="matrix(12,0,0,12,32.1547,8.93607)">
                <path d="M0.233,-0.565L0.233,-0.423L0.462,-0.423L0.462,-0.291L0.233,-0.291L0.233,-0.137L0.492,-0.137L0.492,-0L0.062,-0L0.062,-0.702L0.492,-0.702L0.492,-0.565L0.233,-0.565Z" style="fill:rgb(47,47,65);fill-rule:nonzero;"/>
            </g>
            <g transform="matrix(12,0,0,12,38.6467,8.93607)">
                <path d="M0.233,-0.465C0.253,-0.496 0.278,-0.52 0.308,-0.538C0.338,-0.555 0.371,-0.564 0.408,-0.564L0.408,-0.383L0.361,-0.383C0.318,-0.383 0.286,-0.374 0.265,-0.356C0.244,-0.337 0.233,-0.305 0.233,-0.259L0.233,-0L0.062,-0L0.062,-0.558L0.233,-0.558L0.233,-0.465Z" style="fill:rgb(47,47,65);fill-rule:nonzero;"/>
            </g>
            <g transform="matrix(12,0,0,12,43.7827,8.93607)">
                <path d="M0.148,-0.616C0.118,-0.616 0.094,-0.625 0.075,-0.643C0.055,-0.66 0.046,-0.682 0.046,-0.708C0.046,-0.735 0.055,-0.757 0.075,-0.775C0.094,-0.792 0.118,-0.801 0.148,-0.801C0.177,-0.801 0.202,-0.792 0.221,-0.775C0.24,-0.757 0.249,-0.735 0.249,-0.708C0.249,-0.682 0.24,-0.66 0.221,-0.643C0.202,-0.625 0.177,-0.616 0.148,-0.616ZM0.233,-0.558L0.233,-0L0.062,-0L0.062,-0.558L0.233,-0.558Z" style="fill:rgb(47,47,65);fill-rule:nonzero;"/>
            </g>
            <g transform="matrix(12,0,0,12,47.3227,8.93607)">
                <path d="M0.028,-0.279C0.028,-0.337 0.04,-0.388 0.064,-0.431C0.087,-0.474 0.12,-0.508 0.163,-0.531C0.205,-0.554 0.253,-0.566 0.308,-0.566C0.378,-0.566 0.437,-0.548 0.484,-0.511C0.531,-0.474 0.561,-0.423 0.576,-0.356L0.394,-0.356C0.379,-0.399 0.349,-0.42 0.305,-0.42C0.274,-0.42 0.249,-0.408 0.23,-0.384C0.211,-0.359 0.202,-0.324 0.202,-0.279C0.202,-0.234 0.211,-0.199 0.23,-0.175C0.249,-0.15 0.274,-0.138 0.305,-0.138C0.349,-0.138 0.379,-0.159 0.394,-0.202L0.576,-0.202C0.561,-0.137 0.53,-0.085 0.483,-0.048C0.436,-0.011 0.377,0.008 0.308,0.008C0.253,0.008 0.205,-0.004 0.163,-0.027C0.12,-0.05 0.087,-0.084 0.064,-0.127C0.04,-0.17 0.028,-0.221 0.028,-0.279Z" style="fill:rgb(47,47,65);fill-rule:nonzero;"/>
            </g>
            <g transform="matrix(12,0,0,12,54.5827,8.93607)">
                <path d="M0.028,-0.28C0.028,-0.337 0.039,-0.388 0.061,-0.431C0.082,-0.474 0.112,-0.508 0.149,-0.531C0.186,-0.554 0.228,-0.566 0.274,-0.566C0.313,-0.566 0.348,-0.558 0.378,-0.542C0.407,-0.526 0.43,-0.505 0.446,-0.479L0.446,-0.558L0.617,-0.558L0.617,-0L0.446,-0L0.446,-0.079C0.429,-0.053 0.406,-0.032 0.377,-0.016C0.347,0 0.312,0.008 0.273,0.008C0.228,0.008 0.186,-0.004 0.149,-0.028C0.112,-0.051 0.082,-0.085 0.061,-0.129C0.039,-0.172 0.028,-0.223 0.028,-0.28ZM0.446,-0.279C0.446,-0.322 0.434,-0.355 0.411,-0.38C0.387,-0.405 0.358,-0.417 0.324,-0.417C0.29,-0.417 0.261,-0.405 0.238,-0.381C0.214,-0.356 0.202,-0.323 0.202,-0.28C0.202,-0.237 0.214,-0.204 0.238,-0.179C0.261,-0.154 0.29,-0.141 0.324,-0.141C0.358,-0.141 0.387,-0.153 0.411,-0.178C0.434,-0.203 0.446,-0.236 0.446,-0.279Z" style="fill:rgb(47,47,65);fill-rule:nonzero;"/>
            </g>
            <g transform="matrix(12,0,0,12,65.2747,8.93607)">
                <path d="M1.028,-0.702L0.845,-0L0.638,-0L0.526,-0.462L0.41,-0L0.203,-0L0.025,-0.702L0.208,-0.702L0.309,-0.191L0.434,-0.702L0.622,-0.702L0.742,-0.191L0.844,-0.702L1.028,-0.702Z" style="fill:rgb(47,47,65);fill-rule:nonzero;"/>
            </g>
            <g transform="matrix(12,0,0,12,77.8987,8.93607)">
                <path d="M0.316,0.008C0.261,0.008 0.212,-0.004 0.169,-0.027C0.125,-0.05 0.091,-0.084 0.066,-0.127C0.041,-0.17 0.028,-0.221 0.028,-0.279C0.028,-0.336 0.041,-0.387 0.066,-0.431C0.091,-0.474 0.126,-0.508 0.17,-0.531C0.214,-0.554 0.263,-0.566 0.318,-0.566C0.373,-0.566 0.422,-0.554 0.466,-0.531C0.51,-0.508 0.545,-0.474 0.57,-0.431C0.595,-0.387 0.608,-0.336 0.608,-0.279C0.608,-0.222 0.595,-0.171 0.57,-0.128C0.544,-0.084 0.509,-0.05 0.465,-0.027C0.42,-0.004 0.371,0.008 0.316,0.008ZM0.316,-0.14C0.349,-0.14 0.377,-0.152 0.4,-0.176C0.423,-0.2 0.434,-0.234 0.434,-0.279C0.434,-0.324 0.423,-0.358 0.401,-0.382C0.378,-0.406 0.351,-0.418 0.318,-0.418C0.285,-0.418 0.257,-0.406 0.235,-0.383C0.213,-0.359 0.202,-0.324 0.202,-0.279C0.202,-0.234 0.213,-0.2 0.235,-0.176C0.256,-0.152 0.283,-0.14 0.316,-0.14Z" style="fill:rgb(47,47,65);fill-rule:nonzero;"/>
            </g>
            <g transform="matrix(12,0,0,12,85.5427,8.93607)">
                <path d="M0.316,0.008C0.261,0.008 0.212,-0.004 0.169,-0.027C0.125,-0.05 0.091,-0.084 0.066,-0.127C0.041,-0.17 0.028,-0.221 0.028,-0.279C0.028,-0.336 0.041,-0.387 0.066,-0.431C0.091,-0.474 0.126,-0.508 0.17,-0.531C0.214,-0.554 0.263,-0.566 0.318,-0.566C0.373,-0.566 0.422,-0.554 0.466,-0.531C0.51,-0.508 0.545,-0.474 0.57,-0.431C0.595,-0.387 0.608,-0.336 0.608,-0.279C0.608,-0.222 0.595,-0.171 0.57,-0.128C0.544,-0.084 0.509,-0.05 0.465,-0.027C0.42,-0.004 0.371,0.008 0.316,0.008ZM0.316,-0.14C0.349,-0.14 0.377,-0.152 0.4,-0.176C0.423,-0.2 0.434,-0.234 0.434,-0.279C0.434,-0.324 0.423,-0.358 0.401,-0.382C0.378,-0.406 0.351,-0.418 0.318,-0.418C0.285,-0.418 0.257,-0.406 0.235,-0.383C0.213,-0.359 0.202,-0.324 0.202,-0.279C0.202,-0.234 0.213,-0.2 0.235,-0.176C0.256,-0.152 0.283,-0.14 0.316,-0.14Z" style="fill:rgb(47,47,65);fill-rule:nonzero;"/>
            </g>
        </g>
        <g transform="matrix(3.09287,0,0,3.09287,-51.0291,28.9935)">
            <g transform="matrix(4.52654,0,0,4.52654,32.1547,8.93607)">
                <path d="M0.394,0.007C0.328,0.007 0.268,-0.008 0.213,-0.039C0.158,-0.07 0.114,-0.113 0.082,-0.168C0.049,-0.223 0.033,-0.284 0.033,-0.353C0.033,-0.422 0.049,-0.483 0.082,-0.538C0.114,-0.593 0.158,-0.635 0.213,-0.666C0.268,-0.697 0.328,-0.712 0.394,-0.712C0.46,-0.712 0.521,-0.697 0.576,-0.666C0.631,-0.635 0.674,-0.593 0.706,-0.538C0.737,-0.483 0.753,-0.422 0.753,-0.353C0.753,-0.284 0.737,-0.223 0.705,-0.168C0.673,-0.113 0.63,-0.07 0.575,-0.039C0.52,-0.008 0.46,0.007 0.394,0.007ZM0.394,-0.149C0.45,-0.149 0.495,-0.168 0.529,-0.205C0.562,-0.242 0.579,-0.292 0.579,-0.353C0.579,-0.415 0.562,-0.464 0.529,-0.502C0.495,-0.539 0.45,-0.557 0.394,-0.557C0.337,-0.557 0.292,-0.539 0.259,-0.502C0.225,-0.465 0.208,-0.416 0.208,-0.353C0.208,-0.291 0.225,-0.242 0.259,-0.205C0.292,-0.167 0.337,-0.149 0.394,-0.149Z" style="fill:rgb(128,65,191);fill-rule:nonzero;"/>
            </g>
            <g transform="matrix(4.52654,0,0,4.52654,35.7126,8.93607)">
                <path d="M0.033,-0.352C0.033,-0.421 0.048,-0.483 0.078,-0.538C0.108,-0.592 0.15,-0.634 0.204,-0.665C0.257,-0.695 0.318,-0.71 0.386,-0.71C0.469,-0.71 0.541,-0.688 0.6,-0.644C0.659,-0.6 0.699,-0.54 0.719,-0.464L0.531,-0.464C0.517,-0.493 0.497,-0.516 0.472,-0.531C0.446,-0.546 0.417,-0.554 0.384,-0.554C0.331,-0.554 0.289,-0.536 0.256,-0.499C0.223,-0.462 0.207,-0.413 0.207,-0.352C0.207,-0.291 0.223,-0.242 0.256,-0.205C0.289,-0.168 0.331,-0.15 0.384,-0.15C0.417,-0.15 0.446,-0.158 0.472,-0.173C0.497,-0.188 0.517,-0.211 0.531,-0.24L0.719,-0.24C0.699,-0.164 0.659,-0.104 0.6,-0.061C0.541,-0.017 0.469,0.005 0.386,0.005C0.318,0.005 0.257,-0.01 0.204,-0.041C0.15,-0.071 0.108,-0.113 0.078,-0.167C0.048,-0.221 0.033,-0.283 0.033,-0.352Z" style="fill:rgb(128,65,191);fill-rule:nonzero;"/>
            </g>
            <g transform="matrix(4.52654,0,0,4.52654,39.1618,8.93607)">
                <path d="M0.033,-0.352C0.033,-0.421 0.048,-0.483 0.078,-0.538C0.108,-0.592 0.15,-0.634 0.204,-0.665C0.257,-0.695 0.318,-0.71 0.386,-0.71C0.469,-0.71 0.541,-0.688 0.6,-0.644C0.659,-0.6 0.699,-0.54 0.719,-0.464L0.531,-0.464C0.517,-0.493 0.497,-0.516 0.472,-0.531C0.446,-0.546 0.417,-0.554 0.384,-0.554C0.331,-0.554 0.289,-0.536 0.256,-0.499C0.223,-0.462 0.207,-0.413 0.207,-0.352C0.207,-0.291 0.223,-0.242 0.256,-0.205C0.289,-0.168 0.331,-0.15 0.384,-0.15C0.417,-0.15 0.446,-0.158 0.472,-0.173C0.497,-0.188 0.517,-0.211 0.531,-0.24L0.719,-0.24C0.699,-0.164 0.659,-0.104 0.6,-0.061C0.541,-0.017 0.469,0.005 0.386,0.005C0.318,0.005 0.257,-0.01 0.204,-0.041C0.15,-0.071 0.108,-0.113 0.078,-0.167C0.048,-0.221 0.033,-0.283 0.033,-0.352Z" style="fill:rgb(128,65,191);fill-rule:nonzero;"/>
            </g>
            <g transform="matrix(4.52654,0,0,4.52654,42.611,8.93607)">
                <path d="M0.23,-0.702L0.23,-0.282C0.23,-0.24 0.24,-0.208 0.261,-0.185C0.282,-0.162 0.312,-0.151 0.352,-0.151C0.392,-0.151 0.423,-0.162 0.444,-0.185C0.465,-0.208 0.476,-0.24 0.476,-0.282L0.476,-0.702L0.647,-0.702L0.647,-0.283C0.647,-0.22 0.634,-0.167 0.607,-0.124C0.58,-0.081 0.545,-0.048 0.5,-0.026C0.454,-0.004 0.404,0.007 0.349,0.007C0.294,0.007 0.244,-0.004 0.201,-0.026C0.157,-0.047 0.122,-0.08 0.097,-0.124C0.072,-0.167 0.059,-0.22 0.059,-0.283L0.059,-0.702L0.23,-0.702Z" style="fill:rgb(128,65,191);fill-rule:nonzero;"/>
            </g>
            <g transform="matrix(4.52654,0,0,4.52654,45.8023,8.93607)">
                <path d="M0.597,-0.476C0.597,-0.435 0.588,-0.398 0.569,-0.365C0.55,-0.331 0.522,-0.304 0.483,-0.283C0.444,-0.262 0.396,-0.252 0.339,-0.252L0.233,-0.252L0.233,-0L0.062,-0L0.062,-0.702L0.339,-0.702C0.395,-0.702 0.442,-0.692 0.481,-0.673C0.52,-0.654 0.549,-0.627 0.568,-0.593C0.587,-0.559 0.597,-0.52 0.597,-0.476ZM0.326,-0.388C0.359,-0.388 0.383,-0.396 0.399,-0.411C0.415,-0.426 0.423,-0.448 0.423,-0.476C0.423,-0.504 0.415,-0.526 0.399,-0.541C0.383,-0.556 0.359,-0.564 0.326,-0.564L0.233,-0.564L0.233,-0.388L0.326,-0.388Z" style="fill:rgb(128,65,191);fill-rule:nonzero;"/>
            </g>
            <g transform="matrix(4.52654,0,0,4.52654,48.6268,8.93607)">
                <path d="M0.499,-0.124L0.237,-0.124L0.195,-0L0.016,-0L0.27,-0.702L0.468,-0.702L0.722,-0L0.541,-0L0.499,-0.124ZM0.455,-0.256L0.368,-0.513L0.282,-0.256L0.455,-0.256Z" style="fill:rgb(128,65,191);fill-rule:nonzero;"/>
            </g>
            <g transform="matrix(4.52654,0,0,4.52654,51.9629,8.93607)">
                <path d="M0.567,-0.702L0.567,-0.565L0.381,-0.565L0.381,-0L0.21,-0L0.21,-0.565L0.024,-0.565L0.024,-0.702L0.567,-0.702Z" style="fill:rgb(128,65,191);fill-rule:nonzero;"/>
            </g>
            <g transform="matrix(4.52654,0,0,4.52654,54.6381,8.93607)">
                <rect x="0.062" y="-0.702" width="0.171" height="0.702" style="fill:rgb(128,65,191);fill-rule:nonzero;"/>
            </g>
            <g transform="matrix(4.52654,0,0,4.52654,55.9734,8.93607)">
                <path d="M0.394,0.007C0.328,0.007 0.268,-0.008 0.213,-0.039C0.158,-0.07 0.114,-0.113 0.082,-0.168C0.049,-0.223 0.033,-0.284 0.033,-0.353C0.033,-0.422 0.049,-0.483 0.082,-0.538C0.114,-0.593 0.158,-0.635 0.213,-0.666C0.268,-0.697 0.328,-0.712 0.394,-0.712C0.46,-0.712 0.521,-0.697 0.576,-0.666C0.631,-0.635 0.674,-0.593 0.706,-0.538C0.737,-0.483 0.753,-0.422 0.753,-0.353C0.753,-0.284 0.737,-0.223 0.705,-0.168C0.673,-0.113 0.63,-0.07 0.575,-0.039C0.52,-0.008 0.46,0.007 0.394,0.007ZM0.394,-0.149C0.45,-0.149 0.495,-0.168 0.529,-0.205C0.562,-0.242 0.579,-0.292 0.579,-0.353C0.579,-0.415 0.562,-0.464 0.529,-0.502C0.495,-0.539 0.45,-0.557 0.394,-0.557C0.337,-0.557 0.292,-0.539 0.259,-0.502C0.225,-0.465 0.208,-0.416 0.208,-0.353C0.208,-0.291 0.225,-0.242 0.259,-0.205C0.292,-0.167 0.337,-0.149 0.394,-0.149Z" style="fill:rgb(128,65,191);fill-rule:nonzero;"/>
            </g>
            <g transform="matrix(4.52654,0,0,4.52654,59.5313,8.93607)">
                <path d="M0.69,-0L0.519,-0L0.233,-0.433L0.233,-0L0.062,-0L0.062,-0.702L0.233,-0.702L0.519,-0.267L0.519,-0.702L0.69,-0.702L0.69,-0Z" style="fill:rgb(128,65,191);fill-rule:nonzero;"/>
            </g>
            <g transform="matrix(4.52654,0,0,4.52654,62.9352,8.93607)">
                <path d="M0.499,-0.124L0.237,-0.124L0.195,-0L0.016,-0L0.27,-0.702L0.468,-0.702L0.722,-0L0.541,-0L0.499,-0.124ZM0.455,-0.256L0.368,-0.513L0.282,-0.256L0.455,-0.256Z" style="fill:rgb(128,65,191);fill-rule:nonzero;"/>
            </g>
            <g transform="matrix(4.52654,0,0,4.52654,66.2713,8.93607)">
                <path d="M0.233,-0.132L0.457,-0.132L0.457,-0L0.062,-0L0.062,-0.702L0.233,-0.702L0.233,-0.132Z" style="fill:rgb(128,65,191);fill-rule:nonzero;"/>
            </g>
            <g transform="matrix(4.52654,0,0,4.52654,69.3901,8.93607)">
                <path d="M0.567,-0.702L0.567,-0.565L0.381,-0.565L0.381,-0L0.21,-0L0.21,-0.565L0.024,-0.565L0.024,-0.702L0.567,-0.702Z" style="fill:rgb(128,65,191);fill-rule:nonzero;"/>
            </g>
            <g transform="matrix(4.52654,0,0,4.52654,72.0653,8.93607)">
                <path d="M0.67,-0.702L0.67,-0L0.499,-0L0.499,-0.289L0.233,-0.289L0.233,-0L0.062,-0L0.062,-0.702L0.233,-0.702L0.233,-0.427L0.499,-0.427L0.499,-0.702L0.67,-0.702Z" style="fill:rgb(128,65,191);fill-rule:nonzero;"/>
            </g>
            <g transform="matrix(4.52654,0,0,4.52654,75.3742,8.93607)">
                <path d="M0.233,-0.565L0.233,-0.423L0.462,-0.423L0.462,-0.291L0.233,-0.291L0.233,-0.137L0.492,-0.137L0.492,-0L0.062,-0L0.062,-0.702L0.492,-0.702L0.492,-0.565L0.233,-0.565Z" style="fill:rgb(128,65,191);fill-rule:nonzero;"/>
            </g>
            <g transform="matrix(4.52654,0,0,4.52654,77.823,8.93607)">
                <path d="M0.42,-0L0.274,-0.265L0.233,-0.265L0.233,-0L0.062,-0L0.062,-0.702L0.349,-0.702C0.404,-0.702 0.452,-0.692 0.491,-0.673C0.53,-0.654 0.559,-0.627 0.578,-0.594C0.597,-0.56 0.607,-0.522 0.607,-0.481C0.607,-0.434 0.594,-0.393 0.568,-0.356C0.541,-0.319 0.502,-0.293 0.451,-0.278L0.613,-0L0.42,-0ZM0.233,-0.386L0.339,-0.386C0.37,-0.386 0.394,-0.394 0.41,-0.409C0.425,-0.424 0.433,-0.446 0.433,-0.474C0.433,-0.501 0.425,-0.522 0.41,-0.537C0.394,-0.552 0.37,-0.56 0.339,-0.56L0.233,-0.56L0.233,-0.386Z" style="fill:rgb(128,65,191);fill-rule:nonzero;"/>
            </g>
            <g transform="matrix(4.52654,0,0,4.52654,80.7743,8.93607)">
                <path d="M0.499,-0.124L0.237,-0.124L0.195,-0L0.016,-0L0.27,-0.702L0.468,-0.702L0.722,-0L0.541,-0L0.499,-0.124ZM0.455,-0.256L0.368,-0.513L0.282,-0.256L0.455,-0.256Z" style="fill:rgb(128,65,191);fill-rule:nonzero;"/>
            </g>
            <g transform="matrix(4.52654,0,0,4.52654,84.1104,8.93607)">
                <path d="M0.597,-0.476C0.597,-0.435 0.588,-0.398 0.569,-0.365C0.55,-0.331 0.522,-0.304 0.483,-0.283C0.444,-0.262 0.396,-0.252 0.339,-0.252L0.233,-0.252L0.233,-0L0.062,-0L0.062,-0.702L0.339,-0.702C0.395,-0.702 0.442,-0.692 0.481,-0.673C0.52,-0.654 0.549,-0.627 0.568,-0.593C0.587,-0.559 0.597,-0.52 0.597,-0.476ZM0.326,-0.388C0.359,-0.388 0.383,-0.396 0.399,-0.411C0.415,-0.426 0.423,-0.448 0.423,-0.476C0.423,-0.504 0.415,-0.526 0.399,-0.541C0.383,-0.556 0.359,-0.564 0.326,-0.564L0.233,-0.564L0.233,-0.388L0.326,-0.388Z" style="fill:rgb(128,65,191);fill-rule:nonzero;"/>
            </g>
            <g transform="matrix(4.52654,0,0,4.52654,86.935,8.93607)">
                <rect x="0.062" y="-0.702" width="0.171" height="0.702" style="fill:rgb(128,65,191);fill-rule:nonzero;"/>
            </g>
            <g transform="matrix(4.52654,0,0,4.52654,88.2703,8.93607)">
                <path d="M0.316,0.007C0.265,0.007 0.219,-0.001 0.178,-0.018C0.137,-0.035 0.105,-0.059 0.081,-0.092C0.056,-0.125 0.043,-0.164 0.042,-0.21L0.224,-0.21C0.227,-0.184 0.236,-0.164 0.251,-0.151C0.266,-0.137 0.286,-0.13 0.311,-0.13C0.336,-0.13 0.356,-0.136 0.371,-0.148C0.386,-0.159 0.393,-0.175 0.393,-0.196C0.393,-0.213 0.387,-0.228 0.376,-0.239C0.364,-0.25 0.349,-0.26 0.333,-0.267C0.316,-0.274 0.291,-0.283 0.26,-0.292C0.215,-0.306 0.178,-0.32 0.149,-0.334C0.12,-0.348 0.096,-0.369 0.075,-0.396C0.054,-0.423 0.044,-0.459 0.044,-0.503C0.044,-0.568 0.068,-0.619 0.115,-0.657C0.162,-0.693 0.224,-0.712 0.3,-0.712C0.377,-0.712 0.44,-0.693 0.487,-0.657C0.534,-0.619 0.56,-0.568 0.563,-0.502L0.378,-0.502C0.377,-0.525 0.368,-0.543 0.353,-0.556C0.338,-0.569 0.318,-0.575 0.294,-0.575C0.273,-0.575 0.257,-0.57 0.244,-0.559C0.231,-0.548 0.225,-0.532 0.225,-0.511C0.225,-0.488 0.236,-0.471 0.257,-0.458C0.278,-0.445 0.312,-0.432 0.357,-0.417C0.402,-0.402 0.439,-0.387 0.468,-0.373C0.496,-0.359 0.52,-0.339 0.541,-0.312C0.562,-0.285 0.572,-0.251 0.572,-0.209C0.572,-0.169 0.562,-0.133 0.542,-0.1C0.521,-0.067 0.492,-0.041 0.453,-0.022C0.414,-0.003 0.369,0.007 0.316,0.007Z" style="fill:rgb(128,65,191);fill-rule:nonzero;"/>
            </g>
            <g transform="matrix(4.52654,0,0,4.52654,91.0541,8.93607)">
                <path d="M0.567,-0.702L0.567,-0.565L0.381,-0.565L0.381,-0L0.21,-0L0.21,-0.565L0.024,-0.565L0.024,-0.702L0.567,-0.702Z" style="fill:rgb(128,65,191);fill-rule:nonzero;"/>
            </g>
        </g>
    </g>
    <g transform="matrix(2.08338,0,0,2.32603,-17.2699,-33.2573)">
        <ellipse cx="15.919" cy="25.388" rx="0.738" ry="0.71" style="fill:rgb(47,47,65);"/>
    </g>
    <g transform="matrix(2.08338,0,0,2.32603,-5.08413,-33.4948)">
        <ellipse cx="15.919" cy="25.388" rx="0.738" ry="0.71" style="fill:rgb(47,47,65);"/>
    </g>
    <g transform="matrix(1.28323,0,0,1.14027,-6.05991,-5.43348)">
        <path d="M12.407,30.63C12.407,30.63 14.251,38.111 21.034,38.286C29.17,38.496 31.285,30.651 31.285,30.651" style="fill:none;stroke:rgb(47,47,65);stroke-width:1.65px;"/>
    </g>
</svg>
