<?xml version="1.0" encoding="UTF-8" standalone="no"?>
<!DOCTYPE svg PUBLIC "-//W3C//DTD SVG 1.1//EN" "http://www.w3.org/Graphics/SVG/1.1/DTD/svg11.dtd">
<svg width="100%" height="100%" viewBox="0 0 32 32" version="1.1" xmlns="http://www.w3.org/2000/svg" xmlns:xlink="http://www.w3.org/1999/xlink" xml:space="preserve" xmlns:serif="http://www.serif.com/" style="fill-rule:evenodd;clip-rule:evenodd;stroke-linecap:round;stroke-linejoin:round;stroke-miterlimit:1.5;">
    <g id="Page-1">
        <g transform="matrix(0.702788,0,0,0.702788,-0.120013,-7.91533)">
            <ellipse cx="22.917" cy="31.376" rx="17.869" ry="18.424" style="fill:none;stroke:rgb(47,47,65);stroke-width:2.85px;"/>
        </g>
        <g transform="matrix(0.702788,0,0,0.702788,0.482047,-6.95223)">
            <path d="M20.825,49.262L18.891,52.605L25.123,53.799L24.12,48.905" style="fill:none;stroke:rgb(47,47,65);stroke-width:2.85px;"/>
        </g>
        <g transform="matrix(1.46417,0,0,1.6347,-11.655,-31.0278)">
            <ellipse cx="15.919" cy="25.388" rx="0.738" ry="0.71" style="fill:rgb(47,47,65);"/>
        </g>
        <g transform="matrix(1.46417,0,0,1.6347,-3.09102,-31.1948)">
            <ellipse cx="15.919" cy="25.388" rx="0.738" ry="0.71" style="fill:rgb(47,47,65);"/>
        </g>
        <g transform="matrix(0.901836,0,0,0.801367,-3.77679,-11.4736)">
            <path d="M12.407,30.63C12.407,30.63 14.251,38.111 21.034,38.286C29.17,38.496 31.285,30.651 31.285,30.651" style="fill:none;stroke:rgb(47,47,65);stroke-width:2.34px;"/>
        </g>
    </g>
</svg>
